<svg xmlns="http://www.w3.org/2000/svg" version="1.1" xmlns:xlink="http://www.w3.org/1999/xlink" xmlns:svgjs="http://svgjs.dev/svgjs" width="2000" height="2157" viewBox="0 0 2000 2157"><g transform="matrix(1,0,0,1,-1.1054051540826322,0.8732793522267457)"><svg viewBox="0 0 229 247" data-background-color="#ffffff" preserveAspectRatio="xMidYMid meet" height="2157" width="2000" xmlns="http://www.w3.org/2000/svg" xmlns:xlink="http://www.w3.org/1999/xlink"><g id="tight-bounds" transform="matrix(1,0,0,1,0.1265688901424653,-0.09999999999999432)"><svg viewBox="0 0 228.74686221971507 247.2" height="247.2" width="228.74686221971507"><g><svg viewBox="0 0 228.74686221971507 247.2" height="247.2" width="228.74686221971507"><g><svg viewBox="0 0 228.74686221971507 247.2" height="247.2" width="228.74686221971507"><g id="textblocktransform"><svg viewBox="0 0 228.74686221971507 247.2" height="247.2" width="228.74686221971507" id="textblock"><g><svg viewBox="0 0 228.74686221971507 247.2" height="247.2" width="228.74686221971507"><g transform="matrix(1,0,0,1,0,0)"><svg width="228.74686221971507" viewBox="1.25 -33.500789642333984 31 33.500789642333984" height="247.2" data-palette-color="#ee3e38"><path d="M19.6-11.7L14.25-11.65 14.25-3.6 20.35-2.65 20.3 0 1.55 0 1.25-1.6Q3.2-2.9 5.2-3.8L5.2-3.8 5.2-29.9 1.5-30.45 1.55-33.1 18.8-33.5Q24.75-33.55 28.5-30.43 32.25-27.3 32.25-22.35L32.25-22.35Q32.25-17.85 28.68-14.83 25.1-11.8 19.6-11.7L19.6-11.7ZM20.45-29.15L14.25-28.4 14.25-16.7Q16-16.3 17.6-16.3L17.6-16.3Q20.3-16.3 21.7-18.07 23.1-19.85 23.1-22.5L23.1-22.5Q23.1-24.5 22.4-26.43 21.7-28.35 20.45-29.15L20.45-29.15Z" opacity="1" transform="matrix(1,0,0,1,0,0)" fill="#ee3e38" class="wordmark-text-0" data-fill-palette-color="primary" id="text-0"></path></svg></g></svg></g></svg></g></svg></g></svg></g><defs></defs></svg><rect width="228.74686221971507" height="247.2" fill="none" stroke="none" visibility="hidden"></rect></g></svg></g></svg>