<svg xmlns="http://www.w3.org/2000/svg" version="1.1" xmlns:xlink="http://www.w3.org/1999/xlink" xmlns:svgjs="http://svgjs.dev/svgjs" width="308" height="304" viewBox="0 0 2000 1247"><g transform="matrix(1,0,0,1,-1.2121212121212466,0.504858299595071)"><svg viewBox="0 0 396 247" data-background-color="#ffffff" preserveAspectRatio="xMidYMid meet" height="1247" width="2000" xmlns="http://www.w3.org/2000/svg" xmlns:xlink="http://www.w3.org/1999/xlink"><g id="tight-bounds" transform="matrix(1,0,0,1,0.2400000000000091,-0.09999999999999432)"><svg viewBox="0 0 395.52 247.2" height="247.2" width="395.52"><g><svg></svg></g><g><svg viewBox="0 0 395.52 247.2" height="247.2" width="395.52"><g transform="matrix(1,0,0,1,137.08474157973174,47.215199999999996)"><svg viewBox="0 0 121.35051684053651 152.7696" height="152.7696" width="121.35051684053651"><g><svg viewBox="0 0 121.35051684053651 152.7696" height="152.7696" width="121.35051684053651"><g><svg viewBox="0 0 121.35051684053651 152.7696" height="152.7696" width="121.35051684053651"><g id="textblocktransform"><svg viewBox="0 0 121.35051684053651 152.7696" height="152.7696" width="121.35051684053651" id="textblock"><g><svg viewBox="0 0 121.35051684053651 152.7696" height="152.7696" width="121.35051684053651"><g transform="matrix(1,0,0,1,0,0)"><svg width="121.35051684053651" viewBox="0.3400000035762787 -22.020000457763672 26.030000686645508 32.76000213623047" height="152.7696" data-palette-color="#ee3e38"><path d="M15.04 10.74L0.59 10.74 0.44 8.35 3.47 7.47Q3.47 7.13 3.52 6.03 3.56 4.93 3.61 3.44 3.66 1.95 3.71 0.32 3.76-1.32 3.76-2.73L3.76-2.73 3.86-11.62Q3.86-13.09 3.78-14.11 3.71-15.14 3.47-16.5L3.47-16.5 0.34-17.19 0.34-19.53 9.57-21.92 11.08-21.04 10.69-17.92 10.84-17.82Q11.96-19.73 13.75-20.87 15.53-22.02 17.48-22.02L17.48-22.02Q19.73-22.02 21.75-20.85 23.78-19.68 25.07-17.41 26.37-15.14 26.37-11.82L26.37-11.82Q26.37-8.64 24.9-5.88 23.44-3.13 20.65-1.39 17.87 0.34 14.01 0.34L14.01 0.34Q13.33 0.34 12.55 0.22 11.77 0.1 10.94-0.15L10.94-0.15 10.94 2.73Q10.94 4.25 11.01 5.66 11.08 7.08 11.18 7.47L11.18 7.47 15.19 8.3 15.04 10.74ZM14.06-3.52L14.06-3.52Q15.38-3.52 16.43-4.13 17.48-4.74 18.12-6.2 18.75-7.67 18.7-10.11L18.7-10.11Q18.7-12.7 18.02-14.18 17.33-15.67 16.31-16.26 15.28-16.85 14.16-16.85L14.16-16.85Q13.28-16.85 12.43-16.41 11.57-15.97 10.94-15.23L10.94-15.23 10.94-4.35Q11.62-3.96 12.43-3.74 13.23-3.52 14.06-3.52Z" opacity="1" transform="matrix(1,0,0,1,0,0)" fill="#ee3e38" class="wordmark-text-0" data-fill-palette-color="primary" id="text-0"></path></svg></g></svg></g></svg></g></svg></g></svg></g></svg></g><path d="M319.386 41.215L319.386 0 72.186 0 72.186 247.2 319.386 247.2 319.386 205.985 305.609 205.985 305.609 233.423 85.963 233.423 85.963 13.777 305.609 13.777 305.609 41.215Z" fill="#ee3e38" stroke="transparent" data-fill-palette-color="primary"></path></svg></g><defs></defs></svg><rect width="395.52" height="247.2" fill="none" stroke="none" visibility="hidden"></rect></g></svg></g></svg>